<svg width="109" height="101" viewBox="0 0 109 101" fill="none" xmlns="http://www.w3.org/2000/svg">
<path d="M74.6309 31.5783C74.2854 30.6526 73.6372 29.8497 72.7765 29.2812C71.9157 28.7127 70.8852 28.4069 69.8281 28.4063H68.125V25.25H69.8281C71.182 25.2463 72.4792 24.7463 73.4365 23.8592C74.3939 22.9721 74.9335 21.7701 74.9375 20.5156V7.89063C74.9335 6.63614 74.3939 5.43411 73.4365 4.54706C72.4792 3.66 71.182 3.16 69.8281 3.15625H8.51562C7.16178 3.16 5.86454 3.66 4.90722 4.54706C3.9499 5.43411 3.41029 6.63614 3.40625 7.89063V20.5156C3.41029 21.7701 3.9499 22.9721 4.90722 23.8592C5.86454 24.7463 7.16178 25.2463 8.51562 25.25H10.2188V28.4063H8.51562C7.16178 28.41 5.86454 28.91 4.90722 29.7971C3.9499 30.6841 3.41029 31.8861 3.40625 33.1406V45.7656C3.41029 47.0201 3.9499 48.2221 4.90722 49.1092C5.86454 49.9963 7.16178 50.4963 8.51562 50.5H10.2188V53.6563H8.51562C7.16178 53.66 5.86454 54.16 4.90722 55.0471C3.9499 55.9341 3.41029 57.1361 3.40625 58.3906V71.0156C3.41029 72.2701 3.9499 73.4721 4.90722 74.3592C5.86454 75.2463 7.16178 75.7463 8.51562 75.75H40.875V88.375C40.875 94.5928 57.1569 97.8438 73.2344 97.8438C89.3119 97.8438 105.594 94.5928 105.594 88.375V41.0313C105.594 34.987 90.2486 31.7677 74.6309 31.5783ZM8.51562 22.0938C8.06393 22.0938 7.63073 21.9275 7.31133 21.6315C6.99194 21.3356 6.8125 20.9342 6.8125 20.5156V7.89063C6.8125 7.47208 6.99194 7.07068 7.31133 6.77472C7.63073 6.47877 8.06393 6.3125 8.51562 6.3125H69.8281C70.2798 6.3125 70.713 6.47877 71.0324 6.77472C71.3518 7.07068 71.5312 7.47208 71.5312 7.89063V20.5156C71.5312 20.9342 71.3518 21.3356 71.0324 21.6315C70.713 21.9275 70.2798 22.0938 69.8281 22.0938H8.51562ZM64.7188 25.25V28.4063H57.9062V25.25H64.7188ZM54.5 25.25V28.4063H23.8438V25.25H54.5ZM20.4375 25.25V28.4063H13.625V25.25H20.4375ZM40.875 72.5938H8.51562C8.06393 72.5938 7.63073 72.4275 7.31133 72.1315C6.99194 71.8356 6.8125 71.4342 6.8125 71.0156V58.3906C6.8125 57.9721 6.99194 57.5707 7.31133 57.2747C7.63073 56.9788 8.06393 56.8125 8.51562 56.8125H40.875V72.5938ZM13.625 53.6563V50.5H20.4375V53.6563H13.625ZM40.875 53.6563H23.8438V50.5H40.875V53.6563ZM40.875 41.0313V47.3438H8.51562C8.06393 47.3438 7.63073 47.1775 7.31133 46.8815C6.99194 46.5856 6.8125 46.1842 6.8125 45.7656V33.1406C6.8125 32.7221 6.99194 32.3207 7.31133 32.0247C7.63073 31.7288 8.06393 31.5625 8.51562 31.5625H69.8281C69.9091 31.5707 69.989 31.5866 70.0666 31.6098C55.0791 32.0044 40.875 35.2238 40.875 41.0313ZM102.188 88.375C102.188 90.5213 91.9688 94.6875 73.2344 94.6875C54.5 94.6875 44.2812 90.5213 44.2812 88.375V77.0441C49.8845 80.3423 61.585 82.0625 73.2344 82.0625C84.8838 82.0625 96.5842 80.3423 102.188 77.0441V88.375ZM102.188 72.5938C102.188 74.74 91.9688 78.9063 73.2344 78.9063C54.5 78.9063 44.2812 74.74 44.2812 72.5938V61.2628C49.8845 64.5611 61.585 66.2813 73.2344 66.2813C84.8838 66.2813 96.5842 64.5611 102.188 61.2628V72.5938ZM102.188 56.8125C102.188 58.9588 91.9688 63.125 73.2344 63.125C54.5 63.125 44.2812 58.9588 44.2812 56.8125V45.4816C49.8845 48.7798 61.585 50.5 73.2344 50.5C84.8838 50.5 96.5842 48.7798 102.188 45.4816V56.8125ZM73.2344 47.3438C54.5 47.3438 44.2812 43.1775 44.2812 41.0313C44.2812 38.885 54.5 34.7188 73.2344 34.7188C91.9688 34.7188 102.188 38.885 102.188 41.0313C102.188 43.1775 91.9688 47.3438 73.2344 47.3438Z" fill="black"/>
<path d="M71.5312 55.2344H74.9375V58.3906H71.5312V55.2344Z" fill="black"/>
<path d="M71.5312 72.5938H74.9375V75.75H71.5312V72.5938Z" fill="black"/>
<path d="M71.5312 86.7969H74.9375V89.9531H71.5312V86.7969Z" fill="black"/>
<path d="M18.7344 34.7188H11.9219C11.4702 34.7188 11.037 34.885 10.7176 35.181C10.3982 35.4769 10.2188 35.8783 10.2188 36.2969V42.6094C10.2188 43.0279 10.3982 43.4293 10.7176 43.7253C11.037 44.0212 11.4702 44.1875 11.9219 44.1875H18.7344C19.1861 44.1875 19.6193 44.0212 19.9387 43.7253C20.2581 43.4293 20.4375 43.0279 20.4375 42.6094V36.2969C20.4375 35.8783 20.2581 35.4769 19.9387 35.181C19.6193 34.885 19.1861 34.7188 18.7344 34.7188ZM17.0312 41.0312H13.625V37.875H17.0312V41.0312Z" fill="black"/>
<path d="M32.3594 34.7188H25.5469C25.0952 34.7188 24.662 34.885 24.3426 35.181C24.0232 35.4769 23.8438 35.8783 23.8438 36.2969V42.6094C23.8438 43.0279 24.0232 43.4293 24.3426 43.7253C24.662 44.0212 25.0952 44.1875 25.5469 44.1875H32.3594C32.8111 44.1875 33.2443 44.0212 33.5637 43.7253C33.8831 43.4293 34.0625 43.0279 34.0625 42.6094V36.2969C34.0625 35.8783 33.8831 35.4769 33.5637 35.181C33.2443 34.885 32.8111 34.7188 32.3594 34.7188ZM30.6562 41.0312H27.25V37.875H30.6562V41.0312Z" fill="black"/>
<path d="M18.7344 9.46875H11.9219C11.4702 9.46875 11.037 9.63502 10.7176 9.93097C10.3982 10.2269 10.2188 10.6283 10.2188 11.0469V17.3594C10.2188 17.7779 10.3982 18.1793 10.7176 18.4753C11.037 18.7712 11.4702 18.9375 11.9219 18.9375H18.7344C19.1861 18.9375 19.6193 18.7712 19.9387 18.4753C20.2581 18.1793 20.4375 17.7779 20.4375 17.3594V11.0469C20.4375 10.6283 20.2581 10.2269 19.9387 9.93097C19.6193 9.63502 19.1861 9.46875 18.7344 9.46875ZM17.0312 15.7813H13.625V12.625H17.0312V15.7813Z" fill="black"/>
<path d="M32.3594 9.46875H25.5469C25.0952 9.46875 24.662 9.63502 24.3426 9.93097C24.0232 10.2269 23.8438 10.6283 23.8438 11.0469V17.3594C23.8438 17.7779 24.0232 18.1793 24.3426 18.4753C24.662 18.7712 25.0952 18.9375 25.5469 18.9375H32.3594C32.8111 18.9375 33.2443 18.7712 33.5637 18.4753C33.8831 18.1793 34.0625 17.7779 34.0625 17.3594V11.0469C34.0625 10.6283 33.8831 10.2269 33.5637 9.93097C33.2443 9.63502 32.8111 9.46875 32.3594 9.46875ZM30.6562 15.7813H27.25V12.625H30.6562V15.7813Z" fill="black"/>
<path d="M37.4688 9.46875H61.3125V12.625H37.4688V9.46875Z" fill="black"/>
<path d="M64.7188 9.46875H68.125V12.625H64.7188V9.46875Z" fill="black"/>
<path d="M37.4688 15.7812H61.3125V18.9375H37.4688V15.7812Z" fill="black"/>
<path d="M64.7188 15.7812H68.125V18.9375H64.7188V15.7812Z" fill="black"/>
<path d="M18.7344 59.9688H11.9219C11.4702 59.9688 11.037 60.135 10.7176 60.431C10.3982 60.7269 10.2188 61.1283 10.2188 61.5469V67.8594C10.2188 68.2779 10.3982 68.6793 10.7176 68.9753C11.037 69.2712 11.4702 69.4375 11.9219 69.4375H18.7344C19.1861 69.4375 19.6193 69.2712 19.9387 68.9753C20.2581 68.6793 20.4375 68.2779 20.4375 67.8594V61.5469C20.4375 61.1283 20.2581 60.7269 19.9387 60.431C19.6193 60.135 19.1861 59.9688 18.7344 59.9688ZM17.0312 66.2813H13.625V63.125H17.0312V66.2813Z" fill="black"/>
<path d="M32.3594 59.9688H25.5469C25.0952 59.9688 24.662 60.135 24.3426 60.431C24.0232 60.7269 23.8438 61.1283 23.8438 61.5469V67.8594C23.8438 68.2779 24.0232 68.6793 24.3426 68.9753C24.662 69.2712 25.0952 69.4375 25.5469 69.4375H32.3594C32.8111 69.4375 33.2443 69.2712 33.5637 68.9753C33.8831 68.6793 34.0625 68.2779 34.0625 67.8594V61.5469C34.0625 61.1283 33.8831 60.7269 33.5637 60.431C33.2443 60.135 32.8111 59.9688 32.3594 59.9688ZM30.6562 66.2813H27.25V63.125H30.6562V66.2813Z" fill="black"/>
</svg>
