<svg width="144" height="82" viewBox="0 0 144 82" fill="none" xmlns="http://www.w3.org/2000/svg">
<g clip-path="url(#clip0)">
<path d="M127.416 57.8681C126.626 57.6817 125.717 57.7847 125.113 58.1288L102.015 71.2819C101.41 71.6262 101.229 72.1438 101.557 72.5936C101.884 73.0434 102.655 73.3365 103.51 73.3365H126.608C127.775 73.3365 128.721 72.7978 128.721 72.1329V58.9799C128.721 58.4932 128.206 58.0544 127.416 57.8681ZM108.611 70.9295L124.493 61.8856V70.9295H108.611Z" fill="black"/>
<path d="M142.696 38.5765C141.906 38.39 140.997 38.493 140.392 38.8372L134.062 42.4418V17.9329C134.062 17.2681 133.116 16.7293 131.948 16.7293H115.709L121.604 13.3725C121.605 13.372 121.605 13.3713 121.606 13.3709L127.286 10.1363C128.503 9.44333 129.174 8.52147 129.174 7.54131C129.174 6.56115 128.503 5.63961 127.286 4.9463L120.718 1.206C119.501 0.513001 117.882 0.131348 116.161 0.131348C114.44 0.131348 112.821 0.513001 111.604 1.206L105.921 4.44212L99.0539 8.35251L84.3437 16.7292H18.7369V4.82233C18.7369 4.15752 17.7905 3.61876 16.6233 3.61876C7.45736 3.61908 0 7.86531 0 13.0851V64.2049C0 64.2938 0.018 64.3802 0.0500626 64.4635C0.342001 66.6783 2.02472 68.7362 4.83695 70.2983C7.84295 71.9678 11.8111 72.8873 16.0107 72.8873H80.5966L68.4328 79.8139C67.8284 80.1582 67.6475 80.6757 67.9746 81.1256C68.3017 81.5753 69.0726 81.8685 69.9273 81.8685H141.887C143.054 81.8685 144 81.3298 144 80.665V39.6884C144 39.2017 143.485 38.7627 142.696 38.5765ZM114.594 2.9083C115.458 2.41598 116.865 2.41598 117.729 2.9083L124.298 6.64876C125.162 7.14092 125.162 7.94218 124.298 8.43451L120.11 10.8196L110.405 5.29335L114.594 2.9083ZM107.416 6.9955L117.12 12.5215L113.242 14.7299L103.538 9.2039L107.416 6.9955ZM139.774 53.2124H135.874C134.707 53.2124 133.761 53.7511 133.761 54.4159C133.761 55.0807 134.707 55.6195 135.874 55.6195H139.774V59.2464H135.874C134.707 59.2464 133.761 59.7852 133.761 60.45C133.761 61.1148 134.707 61.6536 135.874 61.6536H139.774V65.2803H135.874C134.707 65.2803 133.761 65.8191 133.761 66.4839C133.761 67.1487 134.707 67.6875 135.874 67.6875H139.774V71.3144H135.874C134.707 71.3144 133.761 71.8533 133.761 72.518C133.761 73.1828 134.707 73.7215 135.874 73.7215H139.774V79.4619H75.0298L96.3789 67.3049C97.2044 66.8346 97.2044 66.0728 96.3789 65.6027C96.2842 65.5487 96.1824 65.502 96.0758 65.4603C95.2528 65.1394 94.1205 65.1866 93.3895 65.6027L84.8238 70.4804H16.011C9.60077 70.4804 4.44038 67.6306 4.23732 63.9869C4.24941 63.7582 4.28063 63.5314 4.3307 63.3072C4.33098 63.3059 4.33126 63.3046 4.33154 63.3033C4.35517 63.1968 4.38357 63.0908 4.41592 62.9854C4.41957 62.9734 4.42351 62.9614 4.42717 62.9494C4.4567 62.8554 4.48988 62.7619 4.52617 62.6686C4.53629 62.6427 4.54698 62.6168 4.55767 62.591C4.58973 62.5122 4.62432 62.4339 4.66145 62.3559C4.6817 62.3136 4.70279 62.2718 4.72445 62.2297C4.75538 62.1685 4.78745 62.1075 4.82148 62.0471C4.85551 61.9867 4.89179 61.927 4.92864 61.8672C4.95423 61.8254 4.97954 61.7836 5.0071 61.7421C5.05857 61.6633 5.11313 61.5854 5.16938 61.508C5.18542 61.4857 5.20117 61.4632 5.21776 61.4409C5.29004 61.3448 5.36514 61.2498 5.44445 61.156C5.44782 61.152 5.45092 61.148 5.45429 61.144C7.10748 59.1958 10.287 57.7434 14.1027 57.2927C14.1134 57.2914 14.1241 57.29 14.1348 57.2887C14.3097 57.2683 14.4864 57.2509 14.6641 57.2347C14.6937 57.232 14.7232 57.2286 14.7533 57.226C14.9139 57.2121 15.0762 57.2012 15.2384 57.1908C15.284 57.1879 15.3293 57.1839 15.3751 57.1814C15.5318 57.1724 15.6898 57.1665 15.8479 57.1609C15.898 57.1591 15.948 57.1561 15.9981 57.1546C16.2051 57.1487 16.4138 57.1456 16.6233 57.1456C17.7905 57.1456 18.7369 56.6069 18.7369 55.9421V47.2153C18.7369 46.5505 17.7905 46.0117 16.6233 46.0117C15.4561 46.0117 14.5097 46.5505 14.5097 47.2153V54.8142C10.9406 55.0713 7.6278 55.9778 5.01554 57.4304C4.74076 57.5832 4.48032 57.7421 4.22663 57.9035V13.0851C4.22663 9.60317 8.6777 6.70161 14.5094 6.12857V17.9329V42.4011V42.4013C14.5094 43.066 15.4558 43.6049 16.623 43.6049C17.7902 43.6049 18.7366 43.066 18.7366 42.4013V42.4011V19.1365H80.1168L68.4325 25.79C67.607 26.2603 67.607 27.0221 68.4325 27.4922C69.2579 27.9621 70.5961 27.9621 71.4213 27.4922L86.7138 18.784C86.7143 18.7837 86.7146 18.7833 86.7152 18.7832L100.548 10.9059L110.252 16.4321L109.114 17.0804C109.113 17.0809 109.112 17.0814 109.111 17.0818L66.4938 41.3504L56.7896 35.8243L65.1899 31.0408C66.0154 30.5705 66.0154 29.8087 65.1899 29.3386C64.3645 28.8687 63.0263 28.8687 62.2011 29.3386L52.3059 34.9733C52.253 35.0034 52.2035 35.0352 52.1571 35.0679C52.1416 35.0788 52.1278 35.0905 52.1132 35.1019C52.0834 35.1244 52.0541 35.1472 52.0269 35.1709C52.0114 35.1847 51.9973 35.1987 51.9827 35.213C51.9594 35.2354 51.9369 35.2582 51.9163 35.2814C51.9028 35.2964 51.8907 35.3117 51.8784 35.3274C51.8595 35.3509 51.8421 35.3749 51.826 35.3989C51.8204 35.4074 51.8131 35.4154 51.8078 35.4239L47.69 42.0664L44.8825 46.5955C44.8454 46.6557 44.8187 46.7169 44.7987 46.7785H37.7697C36.6025 46.7785 35.6561 47.3173 35.6561 47.9821C35.6561 48.6469 36.6025 49.1857 37.7697 49.1857H96.3019C97.4694 49.1857 98.4155 48.6469 98.4155 47.9821C98.4155 47.3173 97.4694 46.7785 96.3019 46.7785H54.3075L67.1972 44.1875C67.2079 44.1853 67.218 44.1823 67.2287 44.18C67.2788 44.1694 67.328 44.1576 67.3767 44.1449C67.3961 44.1398 67.4155 44.135 67.4343 44.1297C67.4849 44.1153 67.5347 44.0995 67.5837 44.0825C67.5994 44.077 67.6157 44.0721 67.6312 44.0665C67.6821 44.0479 67.7316 44.0275 67.7803 44.0061C67.7924 44.0008 67.805 43.9962 67.8168 43.9907C67.8756 43.9638 67.9333 43.9348 67.9878 43.9037L111.482 19.1366H129.835V44.8491L99.6012 62.0655C98.7758 62.5357 98.7758 63.2976 99.6012 63.7676C99.6527 63.7969 99.7064 63.8245 99.7618 63.8503C100.149 64.0301 100.623 64.1201 101.096 64.1201C101.569 64.1201 102.042 64.0301 102.43 63.8503C102.485 63.8247 102.539 63.7969 102.59 63.7676C102.591 63.7672 102.59 63.7676 102.591 63.7672L139.774 42.5937V53.2124ZM62.628 42.553L56.5738 43.77L52.5401 41.473L54.6774 38.0255L62.628 42.553Z" fill="black"/>
</g>
<defs>
<clipPath id="clip0">
<rect width="144" height="82" fill="white"/>
</clipPath>
</defs>
</svg>
