<svg width="35" height="35" viewBox="0 0 35 35" fill="none" xmlns="http://www.w3.org/2000/svg">
<g clip-path="url(#clip0)">
<path d="M14.3993 16.4499C15.1256 16.0846 15.6747 15.6777 16.051 15.238C16.7204 14.446 17.0508 13.3959 17.0508 12.0943C17.0508 10.8276 16.7204 9.74469 16.0598 8.8368C14.9572 7.35793 13.0911 6.60099 10.4527 6.56161H0V27.8981H9.74611C10.8443 27.8981 11.8616 27.804 12.8023 27.6115C13.743 27.4168 14.5568 27.0602 15.2459 26.5395C15.8585 26.0867 16.3704 25.5244 16.7773 24.8616C17.4205 23.8596 17.7421 22.7242 17.7421 21.4597C17.7421 20.2346 17.4599 19.1911 16.8998 18.3335C16.3332 17.4759 15.5019 16.8481 14.3993 16.4499ZM4.31192 10.2675H9.0198C10.0546 10.2675 10.9078 10.3791 11.5772 10.6001C12.3516 10.9217 12.7389 11.5758 12.7389 12.5734C12.7389 13.4681 12.4435 14.0938 11.8594 14.446C11.2709 14.7982 10.5074 14.9754 9.5711 14.9754H4.31192V10.2675ZM11.7566 23.8202C11.2359 24.0718 10.503 24.1965 9.56454 24.1965H4.31192V18.5063H9.63673C10.5643 18.5129 11.2862 18.6354 11.8025 18.8651C12.7214 19.2808 13.1786 20.0421 13.1786 21.1556C13.1786 22.4682 12.706 23.3521 11.7566 23.8202Z" fill="black"/>
<path d="M31.636 7.55701H22.3668V10.2128H31.636V7.55701Z" fill="black"/>
<path d="M34.8563 18.0382C34.6638 16.8021 34.2393 15.7149 33.5787 14.7763C32.8545 13.7131 31.9357 12.9343 30.8178 12.4421C29.7043 11.9477 28.4507 11.7005 27.055 11.7027C24.712 11.7027 22.8087 12.4355 21.3364 13.8903C19.8685 15.3495 19.1334 17.4475 19.1334 20.1821C19.1334 23.0983 19.9451 25.205 21.5771 26.4979C23.2025 27.793 25.0795 28.4384 27.2103 28.4384C29.7896 28.4384 31.7957 27.6705 33.2286 26.1391C34.1453 25.1722 34.6638 24.2205 34.7775 23.2864H30.5072C30.26 23.748 29.9734 24.109 29.6452 24.3715C29.0502 24.8528 28.2757 25.0934 27.3263 25.0934C26.4228 25.0934 25.6571 24.8944 25.0183 24.4984C23.9638 23.864 23.4125 22.7526 23.3425 21.1709H34.9963C35.0138 19.808 34.97 18.7601 34.8563 18.0382ZM23.4475 18.4473C23.6007 17.4212 23.9726 16.6074 24.5632 16.0058C25.1539 15.4064 25.9896 15.1045 27.0594 15.1023C28.046 15.1023 28.8708 15.3845 29.5424 15.9511C30.2053 16.5221 30.5794 17.3512 30.6559 18.4473H23.4475Z" fill="black"/>
</g>
<defs>
<clipPath id="clip0">
<rect width="35" height="35" fill="white"/>
</clipPath>
</defs>
</svg>
