<svg width="35" height="35" viewBox="0 0 35 35" fill="none" xmlns="http://www.w3.org/2000/svg">
<g clip-path="url(#clip0)">
<path d="M17.5 0.00100708C7.85039 0.00100708 0 7.8514 0 17.5008C0 27.1502 7.85039 35.0006 17.5 35.0006C27.1496 35.0006 35 27.1502 35 17.5008C35 7.8514 27.1496 0.00100708 17.5 0.00100708ZM28.904 8.25433C30.8687 10.6726 32.0782 13.725 32.1788 17.0524C28.5395 16.299 25.2442 16.3874 22.3351 16.9578C21.8084 15.726 21.2631 14.5524 20.7127 13.4433C23.8809 12.0785 26.639 10.3353 28.904 8.25433ZM26.9327 6.25075C24.6843 8.30303 22.0787 9.82257 19.4107 10.9444C17.4524 7.36344 15.5788 4.66678 14.4375 3.13431C15.4258 2.92376 16.4499 2.81081 17.5 2.81081C21.0885 2.81081 24.3788 4.10594 26.9327 6.25075ZM11.5996 4.05199C12.4615 5.16879 14.5143 7.96511 16.7194 11.9436C11.1774 13.7492 5.7998 14.0534 3.21572 14.0817C4.29281 9.58224 7.44372 5.88248 11.5996 4.05199ZM2.82516 16.8986C2.85288 16.8986 2.87967 16.8988 2.90796 16.8988C4.69349 16.8988 7.96485 16.7787 11.8161 16.0764C14.0134 15.6758 16.097 15.1365 18.052 14.4681C18.561 15.4824 19.0669 16.5524 19.5575 17.6739C16.82 18.5552 14.5115 19.8234 12.6829 21.0826C9.61645 23.1942 7.46826 25.537 6.29526 26.9856C4.12348 24.4244 2.8098 21.114 2.8098 17.5008C2.8098 17.2989 2.81692 17.0986 2.82516 16.8986ZM8.32001 28.9571C9.32985 27.6856 11.3853 25.3713 14.3586 23.3405C16.3793 21.9604 18.4698 20.935 20.6219 20.2619C21.8706 23.4984 22.9366 27.0746 23.5722 30.8717C21.7199 31.7162 19.665 32.1908 17.5 32.1908C14.0286 32.1908 10.8368 30.9779 8.32001 28.9571ZM26.1572 29.3587C25.5021 25.8714 24.5253 22.5924 23.3959 19.5956C26.1739 19.1269 29.0449 19.2236 31.9937 19.886C31.3577 23.7616 29.2011 27.1304 26.1572 29.3587Z" fill="black"/>
</g>
<defs>
<clipPath id="clip0">
<rect width="35" height="35" fill="white"/>
</clipPath>
</defs>
</svg>
