<svg width="35" height="35" viewBox="0 0 35 35" fill="none" xmlns="http://www.w3.org/2000/svg">
<path d="M17.5 3.15322C22.1727 3.15322 22.7261 3.171 24.5714 3.25519C26.2777 3.33307 27.2043 3.61816 27.821 3.85774C28.6378 4.17521 29.2208 4.55449 29.8332 5.16684C30.4455 5.77918 30.8248 6.36222 31.1422 7.179C31.3818 7.79572 31.6669 8.72234 31.7448 10.4285C31.829 12.2739 31.8468 12.8273 31.8468 17.5C31.8468 22.1728 31.829 22.7262 31.7448 24.5715C31.6669 26.2777 31.3818 27.2043 31.1422 27.8211C30.8248 28.6379 30.4455 29.2209 29.8332 29.8332C29.2208 30.4456 28.6378 30.8249 27.821 31.1423C27.2043 31.3819 26.2777 31.667 24.5714 31.7449C22.7264 31.8291 22.173 31.8469 17.5 31.8469C12.827 31.8469 12.2735 31.8291 10.4285 31.7449C8.72227 31.667 7.79565 31.3819 7.179 31.1423C6.36215 30.8249 5.77912 30.4456 5.16677 29.8332C4.55442 29.2209 4.17514 28.6379 3.85774 27.8211C3.61809 27.2043 3.333 26.2777 3.25512 24.5716C3.17093 22.7262 3.15315 22.1728 3.15315 17.5C3.15315 12.8273 3.17093 12.2739 3.25512 10.4286C3.333 8.72234 3.61809 7.79572 3.85774 7.179C4.17514 6.36222 4.55442 5.77918 5.16677 5.16684C5.77912 4.55449 6.36215 4.17521 7.179 3.85774C7.79565 3.61816 8.72227 3.33307 10.4284 3.25519C12.2738 3.171 12.8272 3.15322 17.5 3.15322ZM17.5 0C12.7472 0 12.1513 0.0201452 10.2848 0.105311C8.42203 0.190338 7.14996 0.486126 6.03677 0.918762C4.88599 1.36599 3.91005 1.96437 2.93718 2.93725C1.9643 3.91012 1.36592 4.88606 0.918693 6.03684C0.486056 7.15003 0.190268 8.4221 0.105242 10.2848C0.0200758 12.1513 0 12.7473 0 17.5C0 22.2528 0.0200758 22.8487 0.105242 24.7152C0.190268 26.578 0.486056 27.85 0.918693 28.9632C1.36592 30.1139 1.9643 31.0899 2.93718 32.0628C3.91005 33.0357 4.88599 33.6341 6.03677 34.0813C7.14996 34.5139 8.42203 34.8097 10.2848 34.8948C12.1513 34.9799 12.7472 35 17.5 35C22.2527 35 22.8487 34.9799 24.7152 34.8948C26.5779 34.8097 27.85 34.5139 28.9632 34.0813C30.1139 33.6341 31.0899 33.0357 32.0628 32.0628C33.0356 31.0899 33.634 30.114 34.0812 28.9632C34.5139 27.85 34.8097 26.578 34.8947 24.7152C34.9799 22.8487 35 22.2528 35 17.5C35 12.7473 34.9799 12.1513 34.8947 10.2848C34.8097 8.4221 34.5139 7.15003 34.0812 6.03684C33.634 4.88606 33.0356 3.91012 32.0628 2.93725C31.0899 1.96437 30.1139 1.36599 28.9632 0.918762C27.85 0.486126 26.5779 0.190338 24.7152 0.105311C22.8487 0.0201452 22.2527 0 17.5 0ZM17.5 8.51352C12.5369 8.51352 8.51345 12.5369 8.51345 17.5C8.51345 22.4631 12.5369 26.4865 17.5 26.4865C22.4631 26.4865 26.4865 22.4631 26.4865 17.5C26.4865 12.5369 22.4631 8.51352 17.5 8.51352ZM17.5 23.3334C14.2783 23.3334 11.6666 20.7217 11.6666 17.5C11.6666 14.2784 14.2783 11.6667 17.5 11.6667C20.7216 11.6667 23.3333 14.2784 23.3333 17.5C23.3333 20.7217 20.7216 23.3334 17.5 23.3334ZM28.9415 8.15848C28.9415 9.31829 28.0013 10.2585 26.8415 10.2585C25.6817 10.2585 24.7415 9.31829 24.7415 8.15848C24.7415 6.99867 25.6817 6.05851 26.8415 6.05851C28.0013 6.05851 28.9415 6.99867 28.9415 8.15848Z" fill="#0A0A08"/>
</svg>
